/vscmnt/brussel_pixiu_data/_data_brussel/112/vsc11236/PredSimResults/SUBJ10_Dhondt2024_3seg/weighted/worker_02.mot
version=1
nRows=4
nColumns=124
inDegrees=yes
endheader
                time	         pelvis_tilt	         pelvis_list	     pelvis_rotation	           pelvis_tx	           pelvis_ty	           pelvis_tz	       hip_flexion_r	     hip_adduction_r	      hip_rotation_r	        knee_angle_r	       ankle_angle_r	    subtalar_angle_r	         mtp_angle_r	       hip_flexion_l	     hip_adduction_l	      hip_rotation_l	        knee_angle_l	       ankle_angle_l	    subtalar_angle_l	         mtp_angle_l	    lumbar_extension	      lumbar_bending	     lumbar_rotation	          arm_flex_r	           arm_add_r	           arm_rot_r	        elbow_flex_r	          arm_flex_l	           arm_add_l	           arm_rot_l	        elbow_flex_l	glut_med1_r/activation	glut_med2_r/activation	glut_med3_r/activation	glut_min1_r/activation	glut_min2_r/activation	glut_min3_r/activation	semimem_r/activation	semiten_r/activation	bifemlh_r/activation	bifemsh_r/activation	    sar_r/activation	add_long_r/activation	add_brev_r/activation	add_mag1_r/activation	add_mag2_r/activation	add_mag3_r/activation	    tfl_r/activation	   pect_r/activation	   grac_r/activation	glut_max1_r/activation	glut_max2_r/activation	glut_max3_r/activation	iliacus_r/activation	  psoas_r/activation	quad_fem_r/activation	    gem_r/activation	   peri_r/activation	rect_fem_r/activation	vas_med_r/activation	vas_int_r/activation	vas_lat_r/activation	med_gas_r/activation	lat_gas_r/activation	 soleus_r/activation	tib_post_r/activation	flex_dig_r/activation	flex_hal_r/activation	tib_ant_r/activation	per_brev_r/activation	per_long_r/activation	per_tert_r/activation	ext_dig_r/activation	ext_hal_r/activation	glut_med1_l/activation	glut_med2_l/activation	glut_med3_l/activation	glut_min1_l/activation	glut_min2_l/activation	glut_min3_l/activation	semimem_l/activation	semiten_l/activation	bifemlh_l/activation	bifemsh_l/activation	    sar_l/activation	add_long_l/activation	add_brev_l/activation	add_mag1_l/activation	add_mag2_l/activation	add_mag3_l/activation	    tfl_l/activation	   pect_l/activation	   grac_l/activation	glut_max1_l/activation	glut_max2_l/activation	glut_max3_l/activation	iliacus_l/activation	  psoas_l/activation	quad_fem_l/activation	    gem_l/activation	   peri_l/activation	rect_fem_l/activation	vas_med_l/activation	vas_int_l/activation	vas_lat_l/activation	med_gas_l/activation	lat_gas_l/activation	 soleus_l/activation	tib_post_l/activation	flex_dig_l/activation	flex_hal_l/activation	tib_ant_l/activation	per_brev_l/activation	per_long_l/activation	per_tert_l/activation	ext_dig_l/activation	ext_hal_l/activation	 ercspn_r/activation	 ercspn_l/activation	 intobl_r/activation	 intobl_l/activation	 extobl_r/activation	 extobl_l/activation	
          1.04299186	         -2.91860796	         -0.19803532	          2.11382157	          1.17858080	          0.82260924	         -0.00124980	         28.89951955	          2.97234498	          4.35343932	        -13.27530018	          8.75723593	         -0.66486281	          0.23487762	        -16.44859908	          2.07990985	          9.73465989	         -6.10106839	          5.53811540	         11.84455384	         13.33334649	         -5.45524827	         -0.44422898	         -1.14509493	        -26.91072177	        -14.23203868	          2.64698711	         30.73150500	         23.19310807	        -13.46135583	         12.05661596	         46.49549489	          0.01377937	          0.01175300	          0.01000329	          0.01377457	          0.01000136	          0.01000161	          0.10879968	          0.02629748	          0.01173894	          0.01000098	          0.01410428	          0.07136099	          0.14078505	          0.11216289	          0.12870657	          0.08837720	          0.01000072	          0.01661339	          0.03723408	          0.01173988	          0.01517266	          0.05518162	          0.01658566	          0.01525994	          0.01535256	          0.01000343	          0.01000063	          0.01000013	          0.07384953	          0.07581823	          0.06199235	          0.01173687	          0.01000593	          0.01173829	          0.01000011	          0.01000049	          0.01000095	          0.29003364	          0.18931051	          0.11249726	          0.11782996	          0.28947958	          0.03503681	          0.21056391	          0.09585339	          0.05621574	          0.27592625	          0.22230948	          0.13632483	          0.01173578	          0.01001674	          0.01172760	          0.02914244	          0.08417690	          0.01000019	          0.01000027	          0.01000069	          0.01000262	          0.01000175	          0.33658425	          0.01000091	          0.01000222	          0.01618252	          0.01613071	          0.01004976	          0.17913496	          0.33937093	          0.01617370	          0.01617458	          0.04980287	          0.20548609	          0.01000041	          0.01000051	          0.01000041	          0.28076962	          0.31482598	          0.25241154	          0.23384632	          0.30811552	          0.36477576	          0.01377900	          0.03399433	          0.16980258	          0.01199361	          0.01339382	          0.01377980	          0.01377879	          0.01000000	          0.02891722	          0.01000019	          0.08591418	          0.01000039	
          1.05342178	         -2.90850672	         -0.43018904	          2.26493434	          1.19262837	          0.82215381	         -0.00103228	         28.25669806	          3.40729097	          4.41156522	        -13.02140049	          8.06766503	         -0.77999365	          0.23903290	        -16.39972318	          1.84340588	          9.61105696	         -7.86522830	          4.72291610	         12.18602294	         14.33122612	         -5.31129713	         -0.00889623	         -1.19573422	        -27.87484489	        -14.20274608	          2.58748032	         30.80615869	         23.10586247	        -13.46201795	         12.11428559	         47.64368819	          0.01173885	          0.01173812	          0.01000015	          0.01173874	          0.01173861	          0.01171964	          0.09268766	          0.02240317	          0.01000057	          0.01000013	          0.01201584	          0.06079423	          0.14094125	          0.15402252	          0.13387668	          0.07534626	          0.01000153	          0.01927442	          0.03172044	          0.01000153	          0.01292583	          0.04701025	          0.01617373	          0.01300047	          0.14613206	          0.01000055	          0.01000067	          0.01377892	          0.10614846	          0.07273163	          0.08687019	          0.01000000	          0.01000002	          0.01000000	          0.01000033	          0.01000223	          0.01000048	          0.29291598	          0.16888865	          0.11098375	          0.14421411	          0.31392696	          0.04529213	          0.25119771	          0.08165854	          0.04789080	          0.23795503	          0.18938794	          0.11613662	          0.01000164	          0.01000020	          0.01000015	          0.02482679	          0.07171136	          0.03701440	          0.01000070	          0.01000083	          0.01000194	          0.01000054	          0.28673986	          0.06614198	          0.01002182	          0.01378635	          0.01374227	          0.01000100	          0.15260711	          0.28911378	          0.01377862	          0.01377946	          0.04242762	          0.17949676	          0.01000035	          0.01000047	          0.01000039	          0.23919066	          0.26820367	          0.23476458	          0.22524501	          0.26250320	          0.32520535	          0.01173848	          0.03060431	          0.16984853	          0.01021753	          0.01141035	          0.01173919	          0.01173832	          0.01393723	          0.02463490	          0.02849069	          0.07319121	          0.01000020	
          1.06385169	         -2.89489200	         -0.67157905	          2.40450045	          1.20688414	          0.82169520	         -0.00082278	         27.57568716	          3.81570278	          4.49696855	        -13.30624354	          7.13669200	         -0.87547792	          0.24105860	        -16.24932065	          1.61104080	          9.47936392	         -9.80622244	          3.74109924	         12.51231702	         15.32949300	         -5.15664059	          0.44028937	         -1.23851653	        -28.63005362	        -14.16331444	          2.66765363	         30.48098187	         22.90706567	        -13.46353556	         12.13871130	         48.68640428	          0.01000047	          0.01000012	          0.02428883	          0.01000043	          0.01000038	          0.01000021	          0.07896164	          0.06627025	          0.04472568	          0.01898481	          0.01377798	          0.05179148	          0.12323512	          0.13121646	          0.11405157	          0.06418841	          0.01000051	          0.01642232	          0.10596183	          0.01002846	          0.01830512	          0.04004876	          0.01377865	          0.01377878	          0.14539661	          0.01998198	          0.01000323	          0.01173846	          0.09042905	          0.06196090	          0.07400568	          0.01617452	          0.01675076	          0.01413884	          0.01174369	          0.01174274	          0.01383047	          0.24953828	          0.17485105	          0.10601944	          0.12285761	          0.26772920	          0.03858489	          0.21399814	          0.06956580	          0.04079869	          0.20271676	          0.16134168	          0.09893806	          0.01387554	          0.01000722	          0.01000728	          0.02115024	          0.06109176	          0.07903381	          0.01175168	          0.01173926	          0.01173874	          0.01174019	          0.24427685	          0.06902053	          0.01000818	          0.01174503	          0.01170777	          0.01000533	          0.13000767	          0.24629918	          0.01173823	          0.01173902	          0.03614456	          0.15291552	          0.02855794	          0.01317525	          0.01174523	          0.20376908	          0.22848560	          0.19999887	          0.19353060	          0.22362958	          0.27704621	          0.01000015	          0.02937144	          0.17287749	          0.01000010	          0.01000003	          0.01000080	          0.01000001	          0.02356870	          0.02098674	          0.02459348	          0.06235238	          0.01378084	
          1.07428161	         -2.87893574	         -0.93190075	          2.52992088	          1.22124302	          0.82125005	         -0.00062582	         26.85951526	          4.18989414	          4.61796910	        -13.72469742	          6.09518497	         -0.95481377	          0.24178185	        -15.97666416	          1.37806392	          9.32975873	        -11.94226183	          2.59167217	         12.80275857	         16.27192425	         -4.99863504	          0.91231848	         -1.27330928	        -29.15815430	        -14.12222567	          2.89859432	         29.76333369	         22.61685971	        -13.46807518	         12.15796434	         49.60263108	          0.18442123	          0.20473407	          0.22240345	          0.13270949	          0.01000708	          0.10390555	          0.06726829	          0.05645769	          0.03810312	          0.01617363	          0.01173813	          0.04412181	          0.10498571	          0.11178539	          0.09716299	          0.07858194	          0.01000095	          0.01399113	          0.09027044	          0.15289676	          0.02020651	          0.04755662	          0.01173839	          0.01173841	          0.12386508	          0.01702312	          0.01000148	          0.01000019	          0.12288066	          0.05278532	          0.09240960	          0.01377925	          0.01427017	          0.01204503	          0.01000458	          0.01000383	          0.01178238	          0.37404523	          0.22110880	          0.11424412	          0.45776269	          0.36692690	          0.22361059	          0.21686892	          0.05926386	          0.03475685	          0.25609959	          0.13744880	          0.08428642	          0.01642274	          0.01000018	          0.01000013	          0.01801815	          0.05204481	          0.06733004	          0.01001156	          0.01000124	          0.01000210	          0.01000227	          0.20810222	          0.05880025	          0.01000048	          0.01000610	          0.01000051	          0.01000039	          0.11075497	          0.20982501	          0.01000009	          0.01000079	          0.03079195	          0.13363298	          0.02432906	          0.01122447	          0.01000612	          0.17359306	          0.19464933	          0.17038118	          0.16487086	          0.19051257	          0.23601875	          0.01000003	          0.05965826	          0.16388955	          0.01000024	          0.01000009	          0.01000023	          0.02572470	          0.04665147	          0.01787884	          0.02095146	          0.05311866	          0.01174006	
